<svg width="34" height="34" viewBox="0 0 34 34" fill="none" xmlns="http://www.w3.org/2000/svg">
<path d="M17 12.4666C15.7977 12.4666 14.6446 12.9442 13.7944 13.7943C12.9443 14.6445 12.4667 15.7976 12.4667 16.9999C12.4667 18.2022 12.9443 19.3553 13.7944 20.2054C14.6446 21.0556 15.7977 21.5332 17 21.5332C18.2023 21.5332 19.3554 21.0556 20.2056 20.2054C21.0557 19.3553 21.5333 18.2022 21.5333 16.9999C21.5333 15.7976 21.0557 14.6445 20.2056 13.7943C19.3554 12.9442 18.2023 12.4666 17 12.4666Z" fill="#F5F5F5"/>
<path d="M22.6655 3.3999H11.3322C6.95867 3.3999 3.4 6.9597 3.4 11.3344V22.6677C3.4 27.0412 6.9598 30.5999 11.3345 30.5999H22.6678C27.0413 30.5999 30.6 27.0401 30.6 22.6654V11.3321C30.6 6.95857 27.0402 3.3999 22.6655 3.3999ZM17 23.7999C13.2498 23.7999 10.2 20.7501 10.2 16.9999C10.2 13.2497 13.2498 10.1999 17 10.1999C20.7502 10.1999 23.8 13.2497 23.8 16.9999C23.8 20.7501 20.7502 23.7999 17 23.7999ZM24.9333 10.1999C24.3077 10.1999 23.8 9.69217 23.8 9.06657C23.8 8.44097 24.3077 7.93324 24.9333 7.93324C25.5589 7.93324 26.0667 8.44097 26.0667 9.06657C26.0667 9.69217 25.5589 10.1999 24.9333 10.1999Z" fill="#F5F5F5"/>
</svg>
