<svg width="31" height="32" viewBox="0 0 31 32" fill="none" xmlns="http://www.w3.org/2000/svg">
<g clip-path="url(#clip0_8_176)">
<path d="M15.5 2.66675C10.5013 2.66675 6.45837 6.84008 6.45837 12.0001C6.45837 19.0001 15.5 29.3334 15.5 29.3334C15.5 29.3334 24.5417 19.0001 24.5417 12.0001C24.5417 6.84008 20.4988 2.66675 15.5 2.66675ZM9.04171 12.0001C9.04171 8.32008 11.935 5.33341 15.5 5.33341C19.065 5.33341 21.9584 8.32008 21.9584 12.0001C21.9584 15.8401 18.2384 21.5867 15.5 25.1734C12.8134 21.6134 9.04171 15.8001 9.04171 12.0001Z" fill="#D9D9D9"/>
<path d="M15.5 15.3334C17.2835 15.3334 18.7292 13.841 18.7292 12.0001C18.7292 10.1591 17.2835 8.66675 15.5 8.66675C13.7166 8.66675 12.2709 10.1591 12.2709 12.0001C12.2709 13.841 13.7166 15.3334 15.5 15.3334Z" fill="#D9D9D9"/>
</g>
<defs>
<clipPath id="clip0_8_176">
<rect width="31" height="32" fill="white"/>
</clipPath>
</defs>
</svg>
